<?xml version="1.0" encoding="iso-8859-1"?>
<!-- Generator: Adobe Illustrator 17.1.0, SVG Export Plug-In . SVG Version: 6.00 Build 0)  -->
<!DOCTYPE svg PUBLIC "-//W3C//DTD SVG 1.1//EN" "http://www.w3.org/Graphics/SVG/1.1/DTD/svg11.dtd">
<svg version="1.1" id="Capa_1" xmlns="http://www.w3.org/2000/svg" xmlns:xlink="http://www.w3.org/1999/xlink" x="0px" y="0px"
	 viewBox="0 0 224.594 224.594" style="enable-background:new 0 0 224.594 224.594;" xml:space="preserve">
<path d="M139.698,128.048V27.401C139.698,12.292,127.406,0,112.297,0S84.896,12.292,84.896,27.401v100.647
	c-15.385,9.466-24.759,26.073-24.759,44.385c0,28.761,23.399,52.161,52.16,52.161s52.16-23.399,52.16-52.161
	C164.457,154.122,155.083,137.515,139.698,128.048z M111.663,200.274c-14.612,0-26.5-11.888-26.5-26.5
	c0-12.238,8.34-22.56,19.634-25.593V27.699c0-4.142,3.357-7.5,7.5-7.5s7.5,3.358,7.5,7.5v120.857
	c10.644,3.441,18.366,13.443,18.366,25.218C138.163,188.387,126.276,200.274,111.663,200.274z"/>
<g>
</g>
<g>
</g>
<g>
</g>
<g>
</g>
<g>
</g>
<g>
</g>
<g>
</g>
<g>
</g>
<g>
</g>
<g>
</g>
<g>
</g>
<g>
</g>
<g>
</g>
<g>
</g>
<g>
</g>
</svg>
